<?xml version="1.0" standalone="no"?>
<!DOCTYPE svg PUBLIC "-//W3C//DTD SVG 20010904//EN"
 "http://www.w3.org/TR/2001/REC-SVG-20010904/DTD/svg10.dtd">
<svg version="1.0" xmlns="http://www.w3.org/2000/svg"
 width="512.000000pt" height="512.000000pt" viewBox="0 0 512.000000 512.000000"
 preserveAspectRatio="xMidYMid meet">
<metadata>
Created by potrace 1.11, written by Peter Selinger 2001-2013
</metadata>
<g transform="translate(0.000000,512.000000) scale(0.100000,-0.100000)"
fill="#000000" stroke="none">
<path d="M2355 4852 c-96 -8 -247 -34 -365 -64 -118 -29 -342 -106 -348 -120
-2 -5 -11 -8 -19 -8 -13 0 -137 -62 -223 -111 -56 -32 -220 -146 -285 -197
-173 -136 -393 -384 -514 -579 -85 -138 -218 -421 -236 -504 -2 -9 -13 -47
-24 -85 -21 -71 -48 -192 -57 -255 -35 -242 -39 -534 -9 -687 2 -11 7 -42 10
-69 19 -132 73 -322 137 -483 129 -325 378 -669 642 -888 45 -37 86 -71 92
-77 6 -5 22 -17 34 -25 12 -8 33 -23 45 -32 13 -10 28 -18 34 -18 6 0 11 -4
11 -8 0 -5 19 -19 43 -32 23 -12 49 -29 57 -36 23 -19 223 -117 325 -159 270
-111 571 -165 895 -160 96 2 182 5 190 8 8 3 45 8 82 11 36 3 72 8 80 11 7 2
27 6 43 8 17 3 68 15 115 27 47 12 90 23 95 24 102 23 345 127 487 208 610
349 1020 935 1137 1623 5 33 13 76 16 95 11 58 14 440 5 520 -32 283 -107 540
-225 781 -245 498 -677 904 -1185 1114 -134 55 -365 122 -482 139 -95 14 -115
18 -138 23 -30 6 -407 11 -465 5z"/>
</g>
</svg>
