<?xml version="1.0" standalone="no"?>
<!DOCTYPE svg PUBLIC "-//W3C//DTD SVG 20010904//EN"
 "http://www.w3.org/TR/2001/REC-SVG-20010904/DTD/svg10.dtd">
<svg version="1.0" xmlns="http://www.w3.org/2000/svg"
 width="1200.000000pt" height="1200.000000pt" viewBox="0 0 1200.000000 1200.000000"
 preserveAspectRatio="xMidYMid meet">
<metadata>
Created by potrace 1.11, written by Peter Selinger 2001-2013
</metadata>
<g transform="translate(0.000000,1200.000000) scale(0.100000,-0.100000)"
fill="#000000" stroke="none">
<path d="M5587 11604 c-1 -1 -45 -5 -97 -9 -55 -4 -152 -22 -230 -42 -74 -19
-141 -35 -147 -36 -7 0 -13 -4 -13 -9 0 -4 -7 -8 -15 -8 -8 0 -23 -4 -33 -9
-9 -5 -48 -24 -87 -42 -38 -18 -82 -41 -97 -51 -16 -11 -28 -16 -28 -13 0 4
-7 0 -15 -7 -29 -26 -40 -34 -47 -34 -4 1 -15 -6 -25 -14 -10 -8 -45 -35 -78
-59 -57 -43 -205 -187 -270 -263 -16 -20 -48 -62 -70 -94 -22 -33 -44 -62 -50
-66 -5 -4 -6 -8 -2 -8 5 0 0 -12 -11 -27 -11 -16 -27 -46 -38 -68 -10 -22 -23
-43 -28 -47 -6 -4 -8 -8 -3 -8 4 0 0 -11 -9 -25 -9 -14 -13 -25 -9 -25 5 0 0
-8 -9 -19 -9 -10 -16 -22 -14 -27 1 -5 -4 -20 -12 -34 -7 -14 -13 -27 -13 -30
0 -3 -3 -15 -8 -28 -5 -13 -9 -32 -9 -42 0 -16 -6 -19 -32 -15 -79 11 -277 15
-318 6 -82 -17 -95 -20 -155 -43 -64 -23 -175 -84 -187 -102 -4 -6 -8 -7 -8
-3 0 4 -10 -2 -23 -15 -50 -52 -66 -60 -122 -63 -31 -2 -70 -8 -88 -14 -18 -5
-39 -9 -47 -10 -33 -1 -67 -10 -115 -29 -27 -11 -53 -20 -57 -21 -34 -6 -192
-81 -196 -93 -2 -4 -8 -8 -14 -8 -5 0 -23 -9 -39 -21 -16 -11 -29 -18 -29 -15
0 3 -8 -2 -18 -11 -11 -10 -39 -34 -63 -53 -24 -19 -51 -42 -60 -52 -10 -9
-20 -14 -23 -11 -3 4 -6 1 -6 -5 0 -6 -23 -34 -50 -62 -27 -28 -50 -54 -50
-56 0 -3 -6 -12 -13 -19 -25 -29 -35 -43 -63 -86 -56 -87 -99 -168 -106 -199
-2 -8 -5 -17 -8 -20 -7 -6 -56 -156 -64 -195 -4 -16 -10 -43 -13 -60 -9 -37
-9 -400 0 -435 3 -14 8 -41 11 -60 3 -19 10 -46 16 -60 5 -14 11 -34 13 -45 9
-49 112 -273 132 -287 6 -4 10 -12 10 -18 0 -6 7 -15 15 -20 12 -8 10 -10 -10
-10 -22 0 -46 5 -125 26 -63 16 -129 20 -276 18 -167 -3 -189 -5 -246 -23 -18
-5 -33 -7 -33 -4 0 3 -6 0 -13 -6 -8 -6 -17 -8 -20 -4 -4 3 -12 1 -20 -5 -7
-6 -24 -13 -37 -15 -14 -2 -38 -10 -55 -16 -16 -7 -34 -14 -40 -15 -20 -5
-130 -61 -133 -68 -2 -5 -10 -8 -18 -8 -8 0 -14 -4 -14 -10 0 -5 -5 -10 -11
-10 -12 0 -87 -51 -132 -90 -69 -59 -207 -202 -207 -215 0 -3 -10 -17 -23 -31
-43 -50 -149 -250 -163 -311 -4 -15 -9 -32 -13 -38 -3 -5 -7 -14 -8 -20 -1 -5
-9 -37 -18 -70 -24 -94 -27 -130 -28 -285 0 -194 9 -259 58 -405 24 -69 78
-190 108 -240 79 -132 203 -272 313 -355 32 -25 61 -48 64 -51 3 -3 25 -16 50
-30 25 -13 47 -26 50 -29 11 -11 93 -50 105 -50 7 0 18 -7 25 -15 7 -9 15 -14
17 -11 3 2 37 -7 76 -21 40 -14 86 -27 102 -29 28 -4 61 -11 95 -21 8 -3 93
-6 187 -7 l173 -2 61 -54 c34 -30 75 -67 91 -82 17 -16 33 -28 37 -28 3 0 19
-11 34 -25 15 -14 27 -22 27 -18 0 4 4 3 8 -3 17 -25 255 -157 266 -147 3 3 6
1 6 -5 0 -7 6 -12 14 -12 26 0 92 -33 76 -38 -57 -18 -234 -112 -316 -167 -88
-60 -191 -149 -248 -214 -12 -13 -33 -38 -49 -55 -50 -56 -143 -200 -187 -291
-24 -49 -45 -92 -45 -95 -1 -3 -7 -18 -14 -35 -7 -16 -19 -51 -27 -77 -16 -54
-27 -64 -46 -45 -7 7 -33 19 -58 27 -25 7 -49 17 -55 20 -5 4 -44 6 -85 5
-119 -3 -219 -57 -306 -167 -25 -32 -46 -83 -60 -148 -7 -30 -6 -107 1 -140
11 -52 49 -131 78 -162 14 -15 22 -29 19 -32 -3 -3 -1 -6 4 -6 6 0 19 -8 30
-18 10 -10 46 -31 79 -48 54 -26 69 -29 155 -28 101 0 140 4 140 14 0 4 6 7
13 7 6 0 21 3 33 6 17 6 20 3 22 -25 1 -33 4 -49 14 -78 3 -8 16 -49 29 -90
13 -41 26 -77 29 -80 3 -3 6 -11 8 -19 1 -7 18 -45 37 -84 40 -82 40 -86 19
-147 -26 -76 -4 -213 45 -273 41 -50 92 -94 132 -114 84 -42 129 -47 245 -28
32 5 45 3 59 -12 10 -9 27 -22 39 -29 12 -6 39 -21 61 -34 71 -41 153 -80 169
-80 8 0 18 -5 21 -10 4 -6 10 -8 15 -5 5 3 14 0 22 -7 7 -7 18 -14 23 -14 6
-1 42 -11 80 -22 78 -23 197 -44 263 -47 61 -2 66 -12 43 -78 -11 -31 -17 -57
-14 -57 3 0 1 -6 -5 -13 -14 -17 -24 -121 -24 -247 0 -97 4 -136 18 -200 3
-14 6 -27 6 -30 3 -27 65 -179 77 -190 4 -3 7 -12 9 -20 7 -32 101 -159 167
-225 77 -77 145 -135 159 -135 5 0 17 -6 25 -14 42 -38 231 -114 326 -131 128
-23 320 -21 386 3 13 5 29 10 34 11 30 5 62 14 80 21 24 10 58 23 65 25 37 9
195 104 245 147 51 43 127 123 158 165 17 24 32 42 33 40 2 -1 4 -55 5 -120 1
-100 10 -167 34 -275 8 -35 51 -145 71 -183 10 -19 19 -38 20 -44 7 -42 199
-275 226 -275 5 0 8 -7 8 -15 0 -8 4 -15 8 -15 8 0 23 -11 69 -50 7 -5 17 -10
22 -10 6 0 14 -6 18 -13 8 -12 191 -107 223 -116 8 -2 44 -12 78 -22 90 -26
140 -32 277 -33 100 -2 144 2 250 23 72 13 286 103 293 122 2 5 10 9 17 9 8 0
20 6 27 12 7 7 31 26 53 42 52 38 185 171 215 216 14 19 30 41 37 48 7 7 13
20 13 28 0 8 4 14 9 14 5 0 13 10 17 23 3 12 13 30 22 40 8 9 12 20 9 24 -4 3
-1 13 7 22 7 9 21 41 31 71 10 30 21 65 26 77 5 13 11 44 14 70 4 27 10 62 15
78 5 17 7 84 5 150 -3 66 -5 130 -5 142 0 12 -5 25 -10 28 -6 4 -8 10 -6 14 3
4 -1 30 -8 58 -8 28 -11 55 -7 61 4 6 28 -9 59 -38 28 -26 52 -45 52 -42 0 4
4 2 8 -3 29 -41 240 -149 357 -184 110 -32 121 -33 285 -37 128 -3 170 0 240
16 47 11 96 23 109 26 14 3 29 8 35 12 6 3 17 7 24 8 38 6 251 126 260 147 2
4 9 7 15 7 16 0 176 155 207 200 13 19 30 41 37 48 7 7 13 17 13 22 0 5 6 15
13 22 6 7 28 44 47 81 19 37 35 67 36 67 1 0 26 -11 56 -24 103 -46 146 -55
258 -55 100 -1 130 2 130 10 0 4 6 6 13 6 36 -3 165 52 208 89 8 8 19 14 23
14 11 0 126 120 126 131 0 5 4 9 9 9 14 0 79 140 98 210 33 126 17 328 -30
388 -5 6 -7 12 -3 12 3 0 -4 18 -15 40 -12 23 -19 44 -15 47 3 3 31 0 63 -6
146 -30 294 -30 408 1 22 6 47 13 55 14 8 2 23 7 35 13 11 5 49 22 85 38 36
15 74 35 84 45 11 10 28 20 38 24 10 3 18 10 18 15 0 5 6 9 14 9 8 0 21 9 29
20 8 11 17 17 20 13 4 -3 7 1 7 10 0 8 9 19 21 22 11 4 18 9 16 12 -3 2 12 21
32 41 55 54 103 127 143 217 41 92 72 185 64 192 -3 3 0 15 6 26 15 29 16 251
0 317 -19 82 -19 81 -37 135 -22 65 -77 175 -87 175 -4 0 -8 6 -8 13 0 7 -8
22 -18 33 -10 11 -27 32 -36 47 -10 15 -22 24 -27 21 -5 -3 -8 -2 -7 3 1 4 -3
18 -10 30 -11 20 -9 22 42 37 30 9 59 16 65 16 6 0 11 4 11 9 0 5 16 16 35 25
19 9 35 22 35 28 0 6 3 8 7 5 3 -4 17 8 30 25 12 18 23 28 23 23 0 -17 49 61
56 89 3 14 10 26 14 26 13 0 28 110 26 190 -2 62 -8 86 -35 142 -18 37 -55 89
-81 115 -41 42 -46 51 -35 66 7 9 17 17 22 17 6 0 23 12 39 28 16 15 32 28 36
30 28 8 135 117 205 207 39 51 137 236 153 290 6 22 14 47 17 55 8 19 12 39
18 70 2 14 4 25 5 25 1 0 3 9 6 20 22 111 26 291 8 380 -8 39 -17 83 -19 98
-14 94 -125 336 -182 395 -7 7 -13 17 -13 22 0 12 -197 210 -209 210 -6 0 -16
9 -23 20 -7 11 -18 20 -24 20 -6 0 -21 11 -34 25 -19 21 -21 25 -7 25 9 0 17
5 17 10 0 6 8 18 18 29 25 27 64 80 77 105 7 11 21 37 33 57 65 114 102 309
87 464 -13 147 -88 342 -162 422 -13 13 -23 27 -23 31 0 7 -96 100 -136 132
-42 33 -122 80 -181 106 -35 14 -63 29 -63 33 0 3 7 30 14 59 8 29 14 55 15
57 0 3 3 20 6 38 15 91 21 282 12 397 -26 325 -186 687 -399 905 -37 38 -68
73 -68 77 0 4 -4 8 -8 8 -5 0 -32 23 -60 50 -28 28 -56 50 -62 50 -5 0 -10 5
-10 10 0 6 -5 10 -11 10 -7 0 -19 8 -28 19 -9 10 -32 26 -51 36 -19 10 -37 21
-40 24 -8 9 -46 30 -140 76 -86 42 -148 67 -188 76 -4 1 -29 10 -57 19 -27 9
-53 18 -58 18 -4 0 -31 5 -60 11 -28 6 -72 14 -97 17 -25 3 -56 7 -70 9 -14 2
-72 4 -130 5 -153 1 -289 -13 -389 -40 -19 -5 -38 -7 -43 -4 -4 3 -8 0 -8 -5
0 -6 -7 -11 -15 -11 -18 0 -159 -48 -194 -67 -15 -7 -31 -13 -38 -13 -6 0 -18
-6 -25 -13 -7 -6 -39 -25 -70 -41 -31 -15 -62 -34 -69 -42 -6 -8 -16 -14 -21
-14 -8 0 -29 -14 -96 -65 -7 -5 -22 -18 -33 -27 -10 -10 -22 -18 -25 -18 -7 0
-159 -153 -216 -218 -21 -23 -35 -42 -32 -42 3 0 -5 -13 -18 -29 -48 -60 -58
-75 -58 -88 0 -7 -4 -13 -9 -13 -5 0 -14 -15 -22 -32 -7 -18 -15 -35 -18 -38
-11 -10 -41 -68 -41 -80 0 -6 -7 -18 -15 -26 -13 -13 -17 -13 -38 1 -14 9 -35
18 -48 21 -13 3 -31 7 -39 9 -8 2 -39 4 -69 4 l-53 1 7 58 c4 31 8 138 8 237
0 149 -4 199 -22 290 -32 155 -44 197 -68 254 -8 18 -16 39 -17 45 -1 6 -5 17
-9 24 -5 6 -5 12 -1 12 4 0 0 8 -8 18 -8 9 -21 33 -28 52 -8 19 -16 37 -19 40
-4 3 -13 19 -21 35 -16 33 -99 164 -115 181 -5 7 -19 25 -30 40 -33 46 -248
256 -296 289 -24 16 -46 32 -49 35 -3 3 -30 21 -60 40 -30 19 -58 38 -61 43
-3 5 -9 8 -13 7 -4 -2 -35 11 -69 28 -144 72 -275 116 -407 137 -8 1 -22 5
-30 8 -32 13 -332 31 -343 21z m1520 -2402 c38 -38 110 -70 171 -76 71 -6 75
-11 47 -53 -14 -20 -25 -42 -25 -49 0 -8 -4 -14 -10 -14 -5 0 -9 -3 -8 -7 1
-5 -6 -23 -15 -40 -10 -18 -14 -33 -11 -33 4 0 0 -8 -9 -18 -10 -10 -14 -22
-11 -25 4 -4 1 -13 -6 -22 -7 -8 -9 -15 -5 -15 4 0 2 -7 -5 -15 -7 -8 -9 -15
-6 -15 4 0 2 -8 -3 -19 -6 -10 -13 -31 -16 -47 -10 -60 -15 -77 -19 -81 -2 -3
-19 1 -38 7 -24 9 -44 30 -75 79 -41 64 -62 93 -110 150 -13 14 -23 30 -23 34
0 5 -4 6 -8 3 -4 -2 -13 3 -19 13 -9 15 -4 28 33 74 24 31 44 61 44 67 0 5 4
10 8 10 5 0 17 18 28 40 10 22 22 40 27 40 4 0 7 6 7 14 0 12 7 19 27 25 2 1
15 -12 30 -27z m-2417 -482 c3 -3 21 -17 40 -30 19 -13 37 -27 40 -30 3 -3 19
-12 35 -20 17 -8 38 -21 48 -29 11 -9 30 -20 44 -26 l26 -11 -28 -18 c-15 -10
-33 -19 -39 -20 -13 -2 -59 -26 -66 -35 -3 -3 -18 -13 -35 -21 -16 -8 -43 -24
-60 -35 -16 -11 -38 -25 -47 -30 -9 -6 -42 -28 -72 -49 -31 -22 -59 -36 -62
-33 -4 3 6 32 21 64 57 121 90 214 100 288 2 11 4 21 5 23 3 3 7 19 9 33 1 10
22 -1 41 -21z m4710 -1252 c39 -83 68 -129 108 -176 56 -64 57 -60 -28 -123
-44 -32 -84 -67 -90 -79 -6 -11 -14 -19 -18 -17 -9 4 -52 -40 -45 -47 3 -2 -4
-9 -15 -15 -22 -12 -112 -133 -112 -150 0 -6 -4 -11 -8 -11 -10 0 -45 -60 -35
-60 4 0 0 -5 -9 -10 -11 -7 -38 -5 -85 6 -71 17 -82 19 -173 29 -30 4 -58 10
-61 13 -3 4 -14 36 -23 72 -18 67 -50 162 -67 192 -5 10 -9 25 -9 33 0 8 -5
15 -12 15 -6 0 -9 3 -6 6 4 3 -3 26 -14 50 -30 68 -30 79 -2 82 34 3 144 39
160 53 8 6 14 9 14 6 0 -9 139 62 176 89 17 13 34 20 38 17 3 -4 6 -2 6 4 0
16 61 42 112 48 25 3 65 12 89 19 73 23 76 22 109 -46z m-1485 -3608 c3 -5 15
-10 26 -10 11 0 22 -7 25 -15 4 -8 14 -15 23 -15 9 0 22 -5 29 -12 7 -7 12 -8
12 -3 0 6 4 5 8 -1 7 -12 189 -83 229 -90 12 -2 34 -9 48 -14 15 -6 39 -10 54
-10 15 0 31 -3 35 -7 4 -4 19 -9 34 -10 15 -1 43 -4 62 -7 45 -7 351 -8 410
-1 25 3 64 10 87 16 53 14 64 7 82 -58 24 -82 124 -273 144 -273 4 0 7 -8 7
-18 0 -16 -10 -18 -102 -19 -118 -1 -155 -6 -217 -34 -24 -10 -47 -19 -52 -19
-12 0 -112 -62 -121 -74 -8 -12 -9 -12 -59 54 -53 70 -61 80 -106 126 -22 24
-44 44 -47 44 -3 0 -19 14 -35 31 -16 17 -32 30 -36 29 -4 -1 -21 10 -38 25
-36 30 -223 124 -271 136 -17 4 -56 15 -86 24 -30 9 -73 18 -95 21 -57 7 -278
8 -352 1 -35 -3 -63 -4 -63 -1 0 9 55 53 67 54 7 0 17 8 22 18 6 9 11 14 11
10 0 -4 16 4 36 17 20 14 41 25 46 25 5 0 6 5 3 10 -3 6 1 10 9 10 9 0 16 4
16 9 0 5 8 12 19 16 10 3 31 17 45 30 25 24 29 24 56 10 16 -8 32 -19 35 -25z
m-3188 -233 c-3 -17 -27 -40 -34 -34 -3 3 -3 17 1 31 4 17 11 23 21 20 8 -3
13 -11 12 -17z m2398 -148 c4 -6 -3 -18 -16 -27 -33 -25 -128 -121 -173 -175
-22 -26 -44 -47 -50 -47 -6 0 -21 35 -32 79 l-21 78 28 17 c15 9 33 16 41 16
18 0 164 47 186 59 22 13 29 13 37 0z m-2559 -246 c-4 -27 -8 -64 -10 -83 -2
-19 -5 -37 -6 -40 -1 -3 -2 -22 -2 -42 0 -21 -2 -38 -4 -38 -2 0 -40 15 -64
26 -3 1 -15 5 -27 9 -13 4 -23 9 -23 11 0 6 53 87 61 94 3 3 14 21 25 39 20
36 46 71 52 71 2 0 1 -21 -2 -47z m2164 -934 c0 -15 5 -31 11 -35 7 -4 7 -10
1 -16 -7 -7 -19 -4 -36 8 -34 26 -39 42 -21 71 13 20 19 22 31 12 8 -6 14 -24
14 -40z"/>
<path d="M1525 5720 c-16 -5 -41 -11 -55 -12 -14 -2 -40 -12 -57 -21 -18 -10
-33 -14 -33 -10 0 5 -4 3 -8 -3 -4 -6 -22 -19 -39 -28 -18 -9 -33 -21 -33 -26
0 -6 -5 -10 -11 -10 -10 0 -61 -50 -100 -97 -21 -25 -76 -140 -86 -178 -11
-46 -12 -246 0 -275 5 -14 20 -49 33 -78 13 -29 24 -57 24 -62 0 -6 3 -10 8
-10 4 0 21 -20 37 -45 17 -24 33 -45 36 -45 4 0 24 -16 45 -35 21 -19 43 -35
50 -35 7 0 14 -4 16 -8 3 -8 92 -48 132 -60 11 -3 70 -7 130 -8 83 -1 121 3
160 17 122 43 200 98 272 194 30 39 78 125 70 125 -3 0 4 24 14 53 14 40 17
75 15 152 -3 117 -20 168 -101 302 -10 18 -22 33 -25 33 -4 0 -25 17 -46 38
-22 20 -47 42 -55 49 -27 20 -118 64 -118 56 0 -5 -4 -3 -8 4 -4 7 -25 13 -46
15 -20 1 -40 6 -42 10 -7 10 -141 9 -179 -2z"/>
</g>
</svg>
